<svg xmlns="http://www.w3.org/2000/svg" aria-hidden="true" style="position:absolute;width:0;height:0;overflow:hidden">
  <defs>
    <symbol id="icon-heart" viewBox="0 0 32 32">
      <path stroke-linecap="round" stroke-linejoin="round" stroke-width="2.286" d="M9.333 4c-3.681 0-6.667 2.955-6.667 6.6 0 2.943 1.167 9.927 12.651 16.987a1.316 1.316 0 0 0 1.366 0c11.484-7.06 12.651-14.044 12.651-16.987 0-3.645-2.985-6.6-6.667-6.6S16 8 16 8s-2.985-4-6.667-4z"/>
    </symbol>
    <symbol id="icon-search" viewBox="0 0 32 32">
      <path stroke-linecap="round" stroke-width="2.286" d="m28 28-5.981-5.992M25.333 14A11.336 11.336 0 0 1 14 25.333 11.334 11.334 0 1 1 25.333 14z"/>
    </symbol>
    <symbol id="icon-ant-desshopping-car" viewBox="0 0 32 32">
      <path d="M28.841 21.934H10.232l.934-1.903 15.525-.028c.525 0 .975-.375 1.069-.894l2.15-12.034a1.088 1.088 0 0 0-1.066-1.279L9.094 5.73l-.169-.794a1.11 1.11 0 0 0-1.081-.875H3.016a1.102 1.102 0 1 0 0 2.206H6.95l.737 3.506 1.816 8.791-2.338 3.816a1.099 1.099 0 0 0-.094 1.15 1.1 1.1 0 0 0 .984.606h1.963a3.209 3.209 0 0 0 2.562 5.134 3.21 3.21 0 0 0 3.206-3.206c0-.697-.231-1.375-.644-1.928h5.034a3.209 3.209 0 0 0 2.562 5.134 3.21 3.21 0 0 0 3.206-3.206c0-.697-.231-1.375-.644-1.928h3.541c.606 0 1.103-.494 1.103-1.103a1.109 1.109 0 0 0-1.106-1.1zM9.553 7.906l17.994.059-1.762 9.869-14.134.025-2.097-9.953zm3.028 19.147c-.544 0-.988-.444-.988-.988s.444-.987.988-.987a.99.99 0 0 1 .698 1.685.987.987 0 0 1-.698.289zm10.16 0c-.544 0-.987-.444-.987-.988s.444-.987.987-.987a.987.987 0 1 1 .001 1.974z"/>
    </symbol>
    <symbol id="icon-user-ac" viewBox="0 0 32 32">
      <path d="M26.667 16V9.333h2.667v8h-2.667zm0 6.667h2.667V20h-2.667zm-13.334-5.334c3.56 0 10.667 1.787 10.667 5.333v4H2.667v-4c0-3.547 7.107-5.333 10.667-5.333zm0-12a5.332 5.332 0 1 1 0 10.665 5.332 5.332 0 0 1 0-10.665zm0 14.534c-3.96 0-8.133 1.947-8.133 2.8v1.467h16.267v-1.467c0-.853-4.173-2.8-8.133-2.8zm0-12a2.801 2.801 0 0 0-1.98 4.78 2.8 2.8 0 1 0 1.98-4.78z"/>
    </symbol>
    <symbol id="icon-guarantee" viewBox="0 0 33 32">
      <path d="M30.464 11.339c-.422-1.307-.242-3.27-1.34-4.786-1.106-1.527-3.03-1.962-4.116-2.756C23.933 3.011 22.933 1.3 21.125.71c-1.757-.573-3.554.205-4.947.205S12.988.137 11.231.71c-1.808.59-2.809 2.301-3.883 3.087-1.085.794-3.01 1.229-4.116 2.756-1.097 1.514-.918 3.481-1.34 4.786C1.491 12.58.178 14.07.178 16c0 1.931 1.312 3.415 1.714 4.661.422 1.308.242 3.27 1.34 4.786 1.106 1.527 3.03 1.962 4.116 2.756 1.075.786 2.075 2.497 3.883 3.087 1.756.573 3.555-.205 4.947-.205 1.39 0 3.193.777 4.947.205 1.808-.59 2.808-2.301 3.883-3.087 1.085-.794 3.01-1.229 4.116-2.756 1.097-1.514.918-3.481 1.34-4.786.401-1.241 1.714-2.731 1.714-4.661 0-1.931-1.311-3.414-1.714-4.661zm-2.379 8.553c-.492 1.523-.363 3.228-.986 4.088-.631.871-2.288 1.269-3.567 2.204-1.265.925-2.151 2.392-3.183 2.728-.976.318-2.565-.328-4.171-.328-1.618 0-3.191.648-4.171.328-1.031-.336-1.916-1.802-3.183-2.728-1.271-.93-2.938-1.336-3.567-2.204-.62-.857-.496-2.573-.986-4.088-.479-1.484-1.593-2.768-1.593-3.892 0-1.125 1.113-2.405 1.593-3.892.492-1.523.363-3.228.986-4.088.631-.87 2.289-1.27 3.567-2.204 1.269-.928 2.15-2.391 3.182-2.728.975-.318 2.57.328 4.171.328 1.621 0 3.19-.648 4.171-.328 1.031.336 1.917 1.802 3.183 2.728 1.271.93 2.938 1.336 3.567 2.204.621.857.496 2.572.986 4.088.479 1.484 1.593 2.768 1.593 3.892 0 1.125-1.113 2.405-1.593 3.892zm-6.148-7.904a1.25 1.25 0 0 1 0 1.768l-6.257 6.257a1.25 1.25 0 0 1-1.768 0l-3.493-3.493a1.25 1.25 0 0 1 1.768-1.768l2.61 2.61 5.373-5.373a1.25 1.25 0 0 1 1.768 0z"/>
    </symbol>
    <symbol id="icon-shipping" viewBox="0 0 33 32">
      <path d="M29.874 16.588V2.016a.941.941 0 0 0-.941-.941H3.713a.94.94 0 0 0-.941.941V17.75a2.845 2.845 0 0 0-1.291.534c-1.238.878-1.531 2.843-.494 4.054l4.24 5.14c2.625 3.072 5.413 3.448 9.557 3.448 3.557 0 5.147.016 8.247-.691l3.018-.722c.489.683 1.266 1.126 2.14 1.126h1.487c1.477 0 2.679-1.266 2.679-2.823v-8.415c0-1.486-1.096-2.707-2.481-2.814zm-4.231 1.936-1.254-.637a7.46 7.46 0 0 0-6.541-.106c-.572.225-1.818.979-2.465.954h-4.352a2.62 2.62 0 0 0-2.618 2.618v.686l-.025-.025L5.28 18.64a2.862 2.862 0 0 0-.626-.512V8.789h7.703v3.451c0 .52.421.941.941.941h5.94a.94.94 0 0 0 .941-.941V8.789h7.812v7.798c-1.1.085-2.017.872-2.348 1.936zM14.24 8.79h4.057v2.509H14.24V8.79zm13.752-1.883H20.18v-3.95h7.812v3.95zm-9.694-3.95v3.95h-4.057v-3.95h4.057zm-5.94 0v3.95H4.655v-3.95h7.703zm10.236 25.447c-2.864.656-4.588.629-7.776.629-3.891 0-5.771-.063-8.139-2.753l-4.24-5.14c-.738-.96.598-2.094 1.456-1.223l3.108 3.374c.821.867 1.855 1.344 3.129 1.372h8.617a.94.94 0 1 0 0-1.882h-8.454v-1.426c0-.405.33-.735.735-.735h4.352c.98.07 2.396-.748 3.258-1.129a5.584 5.584 0 0 1 4.897.078l1.971 1.001v7.138l-2.916.698zm7.879-.587c0 .518-.357.94-.797.94h-1.487c-.439 0-.797-.422-.797-.94v-8.415c0-.518.357-.94.797-.94h1.487c.439 0 .797.422.797.94v8.415z"/>
    </symbol>
    <symbol id="icon-support" viewBox="0 0 32 32">
      <path d="M29.17 12.78C28.96 5.697 23.133 0 16 0S3.04 5.697 2.83 12.78l-.948.948v6.427l.941.941v4.379a4.648 4.648 0 0 0 4.643 4.643h1.166A2.83 2.83 0 0 0 11.294 32h1.882a2.827 2.827 0 0 0 2.662-1.885l.161.002c4.545 0 8.348-3.239 9.223-7.529h2.461l2.434-2.434v-6.427l-.948-.948zM16 1.882c5.586 0 10.238 4.077 11.136 9.412h-1.914c-.874-4.291-4.677-7.529-9.223-7.529s-8.348 3.239-9.223 7.529H4.862c.899-5.335 5.55-9.412 11.136-9.412zm7.291 9.412c-3.042-.009-5.191.176-6.963-2.414l-.86-1.258-.739 1.332c-1.077 1.941-2.528 2.339-4.375 2.339H8.71c.838-3.244 3.789-5.647 7.291-5.647s6.453 2.403 7.291 5.647zM6.588 20.706H5.095l-1.331-1.331v-4.867l1.331-1.331h1.493v7.529zm-1.882 4.768v-2.886h2.07a9.328 9.328 0 0 0 2.458 4.661c-.263.281-.47.616-.601.986H7.467a2.764 2.764 0 0 1-2.761-2.761zm8.47 4.644h-1.882a.942.942 0 0 1 0-1.882h1.882a.942.942 0 0 1 0 1.882zm10.353-9.412c0 4.152-3.378 7.529-7.529 7.529l-.163-.002a2.828 2.828 0 0 0-2.661-1.88c-1.933.004-1.902-.01-2.143.012a7.485 7.485 0 0 1-2.563-5.66v-7.529h1.882c1.666 0 3.694-.275 5.265-2.186 2.072 2.171 4.604 2.186 6.877 2.186h1.035v7.529zm4.706-1.331-1.331 1.331h-1.493v-7.529h1.493l1.331 1.331v4.867z"/>
    </symbol>
    <symbol id="icon-trophy" viewBox="0 0 32 32">
      <path d="M26.322 1.875c-.683 0-1.323.184-1.875.505V.938A.938.938 0 0 0 23.509 0h-15a.938.938 0 0 0-.938.938v1.453a3.728 3.728 0 0 0-1.895-.516 3.754 3.754 0 0 0-3.75 3.75c0 1.577.467 3.101 1.352 4.407 1.505 2.223 3.361 2.8 4.897 3.415a8.484 8.484 0 0 0 4.911 4.781l-.691 4.397h-.136a2.816 2.816 0 0 0-2.813 2.812v4.688h-.938a.938.938 0 0 0 0 1.876h15a.938.938 0 0 0 0-1.876h-.938v-4.688a2.815 2.815 0 0 0-2.812-2.812h-.136l-.691-4.397a8.486 8.486 0 0 0 4.915-4.79c1.451-.58 3.353-1.159 4.874-3.405a7.834 7.834 0 0 0 1.352-4.407 3.754 3.754 0 0 0-3.75-3.75zM7.565 11.183a5.957 5.957 0 0 1-3.763-5.558c0-1.034.841-1.875 1.875-1.875s1.875.841 1.875 1.875c0 .066.007.13.02.192v4.495c0 .301.016.599.047.892l-.054-.022zm13.132 18.942h-9.375V28.25h9.375v1.875zM19.76 24.5a.94.94 0 0 1 .938.938v.938h-9.375v-.938a.94.94 0 0 1 .938-.938h7.5zm-5.466-1.875.62-3.946a8.43 8.43 0 0 0 2.192 0l.62 3.946h-3.432zm8.278-12.313c0 3.619-2.944 6.563-6.563 6.563s-6.563-2.944-6.563-6.563V5.625h13.125v4.687zm0-6.562H9.447V1.875h13.125V3.75zm1.862 7.433-.033.013c.03-.29.046-.585.046-.884V5.625c0-1.034.841-1.875 1.875-1.875s1.875.841 1.875 1.875a5.957 5.957 0 0 1-3.763 5.558z"/>
    </symbol>
  </defs>
</svg>
