<svg xmlns="http://www.w3.org/2000/svg" aria-hidden="true" style="position:absolute;width:0;height:0;overflow:hidden">
  <defs>
    <symbol id="icon-heart" viewBox="0 0 32 32">
      <path stroke-linecap="round" stroke-linejoin="round" stroke-width="2.286" d="M9.333 4c-3.681 0-6.667 2.955-6.667 6.6 0 2.943 1.167 9.927 12.651 16.987a1.316 1.316 0 0 0 1.366 0c11.484-7.06 12.651-14.044 12.651-16.987 0-3.645-2.985-6.6-6.667-6.6S16 8 16 8s-2.985-4-6.667-4z"/>
    </symbol>
    <symbol id="icon-search" viewBox="0 0 32 32">
      <path stroke-linecap="round" stroke-width="2.286" d="m28 28-5.981-5.992M25.333 14A11.336 11.336 0 0 1 14 25.333 11.334 11.334 0 1 1 25.333 14z"/>
    </symbol>
    <symbol id="icon-ant-desshopping-car" viewBox="0 0 32 32">
      <path d="M28.841 21.934H10.232l.934-1.903 15.525-.028c.525 0 .975-.375 1.069-.894l2.15-12.034a1.088 1.088 0 0 0-1.066-1.279L9.094 5.73l-.169-.794a1.11 1.11 0 0 0-1.081-.875H3.016a1.102 1.102 0 1 0 0 2.206H6.95l.737 3.506 1.816 8.791-2.338 3.816a1.099 1.099 0 0 0-.094 1.15 1.1 1.1 0 0 0 .984.606h1.963a3.209 3.209 0 0 0 2.562 5.134 3.21 3.21 0 0 0 3.206-3.206c0-.697-.231-1.375-.644-1.928h5.034a3.209 3.209 0 0 0 2.562 5.134 3.21 3.21 0 0 0 3.206-3.206c0-.697-.231-1.375-.644-1.928h3.541c.606 0 1.103-.494 1.103-1.103a1.109 1.109 0 0 0-1.106-1.1zM9.553 7.906l17.994.059-1.762 9.869-14.134.025-2.097-9.953zm3.028 19.147c-.544 0-.988-.444-.988-.988s.444-.987.988-.987a.99.99 0 0 1 .698 1.685.987.987 0 0 1-.698.289zm10.16 0c-.544 0-.987-.444-.987-.988s.444-.987.987-.987a.987.987 0 1 1 .001 1.974z"/>
    </symbol>
    <symbol id="icon-user-ac" viewBox="0 0 32 32">
      <path d="M26.667 16V9.333h2.667v8h-2.667zm0 6.667h2.667V20h-2.667zm-13.334-5.334c3.56 0 10.667 1.787 10.667 5.333v4H2.667v-4c0-3.547 7.107-5.333 10.667-5.333zm0-12a5.332 5.332 0 1 1 0 10.665 5.332 5.332 0 0 1 0-10.665zm0 14.534c-3.96 0-8.133 1.947-8.133 2.8v1.467h16.267v-1.467c0-.853-4.173-2.8-8.133-2.8zm0-12a2.801 2.801 0 0 0-1.98 4.78 2.8 2.8 0 1 0 1.98-4.78z"/>
    </symbol>
  </defs>
</svg>
